<?xml version="1.0" standalone="no"?>
<!DOCTYPE svg PUBLIC "-//W3C//DTD SVG 20010904//EN"
 "http://www.w3.org/TR/2001/REC-SVG-20010904/DTD/svg10.dtd">
<svg version="1.0" xmlns="http://www.w3.org/2000/svg"
 width="500.000000pt" height="500.000000pt" viewBox="0 0 500.000000 500.000000"
 preserveAspectRatio="xMidYMid meet">
<metadata>
Created by potrace 1.14, written by Peter Selinger 2001-2017
</metadata>
<g transform="translate(0.000000,500.000000) scale(0.100000,-0.100000)"
fill="#000000" stroke="none">
<path d="M1018 3832 c-11 -2 -22 -19 -28 -45 -6 -23 -13 -50 -16 -59 -3 -9 -7
-25 -9 -35 -2 -10 -17 -72 -35 -138 -17 -66 -33 -128 -35 -138 -2 -10 -18 -73
-35 -140 -29 -110 -37 -141 -43 -172 -2 -5 -6 -16 -10 -22 -5 -7 -6 -13 -3
-13 3 0 -1 -21 -9 -47 -8 -27 -16 -59 -19 -73 -2 -14 -15 -65 -29 -115 -14
-49 -29 -106 -33 -125 -11 -48 -11 -50 -13 -52 -2 -2 -5 -14 -8 -28 -7 -39
-11 -55 -13 -55 -1 0 -3 -7 -5 -15 -2 -12 -20 -81 -40 -160 -8 -28 -27 -105
-30 -121 -17 -81 -64 -193 -95 -227 -25 -26 -88 -44 -139 -39 -23 2 -38 -1
-38 -7 0 -8 77 -11 259 -11 168 0 258 3 258 10 0 6 -29 10 -68 11 -111 2 -136
10 -165 54 -20 31 -20 92 0 185 8 39 16 78 18 88 2 10 7 27 10 37 3 10 8 27
10 37 2 10 8 33 14 51 5 17 7 32 4 32 -3 0 0 7 7 15 7 8 10 15 6 15 -3 0 -1
11 4 25 5 14 12 36 14 48 2 12 9 42 16 67 7 25 13 50 14 55 4 18 26 99 41 150
8 28 16 61 19 75 2 14 11 50 20 81 9 31 18 65 20 75 2 11 12 48 21 84 9 36 19
72 20 80 2 8 4 15 5 15 1 0 3 7 5 15 2 8 6 26 9 40 11 54 14 66 25 105 6 22
11 43 11 47 1 4 6 22 11 40 11 38 21 87 22 106 0 6 4 12 9 12 5 0 10 -6 12
-12 2 -7 9 -30 15 -50 7 -20 14 -47 16 -60 5 -26 50 -178 66 -223 6 -16 12
-41 15 -55 3 -13 10 -30 16 -37 6 -7 8 -13 5 -13 -4 0 1 -19 9 -42 9 -24 17
-52 20 -63 2 -11 8 -29 13 -40 5 -11 24 -65 42 -120 17 -55 34 -104 38 -110 3
-5 7 -19 8 -30 2 -11 8 -24 13 -29 4 -4 6 -15 3 -22 -3 -8 1 -14 8 -14 7 0 10
-2 7 -5 -3 -3 8 -43 24 -88 16 -45 30 -89 32 -98 2 -8 11 -32 20 -52 8 -20 13
-37 11 -37 -2 0 7 -30 21 -67 14 -38 27 -76 29 -85 2 -9 8 -25 13 -35 6 -10
10 -21 10 -26 0 -4 17 -56 37 -116 l36 -108 59 2 c33 1 62 4 64 6 2 2 6 18 9
34 3 17 12 59 22 95 9 36 19 73 21 83 2 9 6 25 8 35 2 9 12 46 21 82 9 36 19
73 21 83 2 10 6 27 9 37 3 10 7 27 9 37 2 10 9 38 16 63 7 25 13 52 15 60 2 8
8 35 15 60 7 25 14 53 16 63 2 10 6 27 9 37 5 16 8 29 18 75 2 6 6 16 11 23 4
7 5 16 2 19 -3 3 1 21 9 40 8 19 14 37 14 41 -1 4 0 9 1 12 2 6 6 22 13 60 3
14 8 32 11 40 3 8 8 29 11 45 9 46 10 49 17 60 3 6 9 28 13 50 9 46 11 55 26
115 6 25 12 52 14 60 2 8 4 15 6 15 1 0 3 9 5 20 4 28 9 46 19 75 4 14 9 36
10 50 0 15 8 26 19 28 11 2 16 0 12 -6 -3 -6 -2 -21 3 -34 8 -21 25 -91 35
-143 2 -11 12 -49 21 -85 9 -36 19 -74 21 -84 2 -10 15 -60 30 -110 14 -50 27
-95 28 -101 1 -5 5 -16 9 -22 15 -24 -1 -29 -87 -28 -51 1 -87 -3 -89 -10 -3
-6 15 -11 43 -11 44 -2 131 -37 128 -53 -1 -3 7 -24 17 -46 9 -22 19 -51 22
-64 2 -14 9 -31 15 -38 6 -7 8 -13 4 -13 -3 0 0 -16 8 -35 8 -19 12 -35 9 -35
-3 0 -1 -6 5 -12 6 -7 10 -16 10 -21 1 -21 16 -73 24 -84 6 -7 8 -13 4 -13 -3
0 0 -16 8 -35 9 -20 15 -38 15 -40 0 -3 7 -31 17 -63 10 -31 18 -61 20 -67 5
-26 74 -247 79 -255 11 -18 -19 -60 -57 -79 -27 -13 -57 -18 -98 -17 -34 0
-62 -4 -64 -10 -3 -7 36 -10 115 -9 66 1 124 -2 130 -5 11 -7 121 -354 120
-382 0 -10 4 -18 9 -18 5 0 9 -8 8 -17 0 -15 72 -259 89 -303 9 -21 9 -21 17
-62 7 -32 12 -38 35 -39 187 -5 170 -7 181 26 5 17 12 41 14 55 3 14 14 59 25
100 11 41 22 86 25 100 4 19 95 386 122 490 19 75 35 140 39 162 3 15 10 39
15 53 6 15 8 30 5 35 -3 5 -1 11 4 15 5 3 10 13 10 23 0 23 5 44 15 60 4 7 5
16 2 19 -3 3 -1 13 4 23 5 9 12 30 14 46 3 16 10 44 15 62 5 18 10 35 10 37 1
3 1 6 2 8 0 1 3 13 6 27 7 39 11 55 13 55 1 0 4 13 6 28 7 40 22 77 32 77 5 0
9 -6 9 -12 0 -7 15 -56 33 -108 18 -52 34 -102 35 -110 2 -8 4 -16 5 -17 2 -2
3 -6 4 -10 1 -5 13 -39 26 -78 13 -38 25 -74 26 -80 2 -5 14 -44 29 -85 14
-41 27 -79 28 -85 2 -5 14 -44 27 -85 13 -41 23 -78 22 -82 -1 -5 2 -8 6 -8 5
0 9 -6 9 -12 0 -7 18 -65 39 -128 21 -63 39 -118 40 -122 1 -5 3 -10 4 -13 1
-3 4 -9 5 -15 1 -5 3 -11 5 -12 1 -2 3 -10 5 -18 3 -14 40 -129 52 -160 3 -8
7 -21 9 -28 1 -8 6 -21 10 -30 4 -9 8 -19 8 -22 1 -3 14 -45 30 -95 l28 -90
89 1 c50 1 92 4 95 7 5 4 34 110 50 180 2 9 6 27 10 40 3 12 7 32 10 44 2 12
9 34 14 48 5 14 7 25 4 25 -2 0 0 8 5 19 6 10 13 33 17 52 8 46 12 64 14 64 1
0 3 7 5 15 2 8 22 87 44 175 23 88 44 171 47 185 7 36 12 55 14 55 1 0 3 7 5
15 2 8 7 26 10 40 3 14 8 35 11 47 2 12 9 34 14 48 5 14 8 25 5 25 -2 0 2 18
10 40 8 22 12 40 10 40 -2 0 2 18 10 40 8 22 12 40 10 40 -3 0 0 11 5 25 5 14
12 36 14 48 11 53 15 67 31 112 8 26 17 60 20 74 5 38 27 118 51 191 29 90 86
126 202 129 17 1 32 4 32 9 0 4 -117 7 -260 7 -143 0 -260 -3 -260 -7 0 -5 3
-8 8 -9 4 0 41 -2 82 -5 41 -3 81 -5 88 -6 7 -1 25 -14 40 -29 22 -23 27 -39
29 -86 1 -32 -4 -83 -12 -113 -8 -30 -16 -66 -19 -80 -5 -26 -13 -57 -21 -87
-2 -10 -18 -70 -35 -133 -17 -63 -32 -119 -34 -125 -1 -5 -9 -37 -16 -70 -17
-74 -17 -74 -20 -77 -1 -2 -3 -10 -5 -18 -7 -27 -14 -55 -29 -108 -8 -29 -15
-55 -15 -57 -1 -3 -1 -6 -2 -7 0 -2 -2 -10 -4 -18 -1 -8 -15 -60 -29 -115 -14
-55 -28 -109 -31 -120 -2 -11 -8 -35 -14 -52 -5 -18 -7 -33 -4 -33 3 0 1 -6
-4 -12 -6 -7 -14 -31 -18 -53 -9 -44 -9 -42 -25 -105 -12 -49 -20 -88 -22
-107 -1 -7 -6 -13 -12 -13 -6 0 -22 39 -35 88 -12 48 -29 104 -37 125 -8 20
-12 37 -9 37 2 0 0 12 -6 28 -6 15 -12 34 -14 42 -5 25 -137 424 -143 435 -4
6 -7 15 -8 21 -2 11 -38 119 -51 154 -3 8 -8 23 -10 33 -1 10 -10 31 -18 48
-9 16 -14 29 -11 29 2 0 -9 37 -26 83 -16 45 -31 90 -33 100 -2 9 -7 22 -10
27 -3 5 -8 18 -10 27 -2 10 -27 86 -55 168 -28 83 -53 157 -54 165 -2 11 -18
15 -64 15 -64 1 -66 0 -76 -52 -3 -10 -18 -72 -36 -138 -17 -66 -33 -129 -35
-140 -1 -11 -11 -49 -20 -85 -9 -36 -18 -72 -20 -80 -2 -8 -11 -43 -20 -77 -9
-35 -18 -71 -20 -80 -1 -10 -8 -38 -15 -63 -7 -25 -14 -54 -17 -65 -8 -38 -11
-50 -13 -50 -1 0 -3 -7 -5 -15 -1 -8 -7 -33 -13 -55 -6 -22 -13 -51 -16 -65
-6 -32 -11 -51 -31 -125 -26 -95 -55 -211 -59 -231 -3 -10 -9 -39 -16 -64 -6
-25 -13 -54 -15 -65 -2 -11 -6 -29 -9 -40 -3 -11 -11 -41 -17 -68 -10 -45 -25
-61 -33 -34 -7 21 -56 242 -57 249 0 4 -6 26 -14 48 -8 22 -14 44 -14 48 0 20
-25 109 -34 120 -5 6 -7 12 -4 12 3 0 -3 25 -13 56 -11 31 -18 59 -16 63 2 3
45 6 95 6 50 0 91 3 91 7 0 5 -10 8 -22 9 -13 1 -36 3 -53 5 -16 2 -36 5 -42
6 -7 1 -13 5 -13 10 0 4 -6 8 -13 8 -16 0 -65 92 -73 135 -3 16 -8 33 -12 39
-3 6 -7 16 -9 21 -8 39 -13 56 -28 105 -21 69 -24 79 -26 88 -1 4 -10 32 -21
62 -11 30 -22 66 -24 79 -3 14 -7 28 -10 33 -3 4 -7 18 -9 30 -3 12 -12 44
-21 72 -18 58 -20 67 -24 81 -1 6 -7 21 -12 35 -5 14 -12 36 -14 49 -3 13 -6
26 -6 30 -5 18 16 49 44 65 22 14 52 19 103 20 42 1 72 5 72 11 0 7 -47 10
-128 10 l-128 0 -7 25 c-4 14 -8 28 -9 33 -2 4 -4 9 -5 12 -3 6 -3 6 -14 55
-5 19 -11 40 -14 45 -6 10 -7 13 -16 50 -2 11 -5 21 -6 23 -2 1 -3 5 -4 10 -2
4 -9 27 -16 52 -7 25 -14 47 -15 50 -3 14 -47 157 -52 170 -8 18 -7 17 -17 60
-5 19 -11 40 -15 45 -3 6 -6 12 -6 15 -5 30 -19 78 -27 88 -6 6 -8 12 -4 12 3
0 0 15 -8 34 -8 19 -12 37 -8 40 5 6 -13 7 -113 7 -88 0 -92 0 -93 -13 0 -7
-12 -56 -26 -109 -14 -52 -27 -106 -30 -120 -3 -13 -9 -39 -15 -56 -5 -18 -8
-33 -6 -33 2 0 -2 -18 -10 -40 -8 -22 -12 -40 -10 -40 3 0 0 -12 -6 -27 -6
-16 -12 -35 -14 -44 -2 -9 -15 -65 -30 -125 -14 -60 -28 -117 -30 -127 -2 -10
-7 -27 -10 -37 -3 -10 -8 -27 -10 -38 -2 -12 -15 -64 -29 -117 -14 -54 -29
-111 -31 -128 -3 -17 -8 -34 -10 -37 -3 -4 -7 -25 -11 -46 -3 -20 -10 -48 -15
-61 -5 -13 -11 -36 -14 -51 -6 -33 -9 -46 -33 -142 -10 -41 -23 -84 -29 -95
-13 -23 -9 -30 -48 90 -14 44 -29 87 -32 95 -4 8 -7 18 -8 23 -2 4 -3 8 -4 10
-2 1 -4 11 -6 23 -3 11 -18 61 -35 110 -17 49 -33 96 -35 104 -1 8 -12 41 -23
73 -11 31 -18 57 -15 57 3 0 1 6 -4 13 -9 10 -33 74 -39 102 -1 6 -28 89 -60
185 -32 96 -58 177 -59 180 -12 47 -29 98 -37 108 -6 6 -8 12 -4 12 4 0 0 13
-9 30 -8 16 -15 32 -15 35 0 3 0 6 -1 8 0 1 -2 12 -4 23 -3 12 -10 34 -16 50
-7 16 -13 35 -15 42 -1 8 -6 21 -10 30 -4 9 -8 22 -9 28 -11 51 -15 54 -73 55
-31 0 -66 2 -77 3 -11 1 -28 0 -37 -2z"/>
</g>
</svg>
